# xmcd
#
# Track frame offsets:
# 150
# 16618
# 43328
# 66355
# 83770
# 96528
# 110708
# 128578
# 145508
# 164953
# 183078
# 202108
# 219583
# 235405
#
# Disc length: 3351 seconds
#
#
# Revision: 0
# Processed by: cddbd v1.4PL0 Copyright (c) Steve Scherf et al.
# Submitted via: FreeRIP 2.30 
#
DISCID=ce0d150e
DTITLE=Gloria Gaynor - Reach out, I'll be there
DYEAR=1994
DGENRE=Blues
TTITLE0=Don't go soft on me
TTITLE1=I am what I am
TTITLE2=Never can say goodbye
TTITLE3=The eye of the tiger
TTITLE4=Every breath you take
TTITLE5=(What a) Wonderful World
TTITLE6=The Heat is on
TTITLE7=Suddenly
TTITLE8=The Power of Love
TTITLE9=More than enough
TTITLE10=Reach out, I'll be there
TTITLE11=(If you wnat it) Do it Yourself
TTITLE12=How high is the moon
TTITLE13=Feelings
EXTD=
EXTT0=
EXTT1=
EXTT2=
EXTT3=
EXTT4=
EXTT5=
EXTT6=
EXTT7=
EXTT8=
EXTT9=
EXTT10=
EXTT11=
EXTT12=
EXTT13=
PLAYORDER=
